<?xml version="1.0" encoding="UTF-8"?>
<svg version="1.1" xmlns="http://www.w3.org/2000/svg" width="844" height="844">
<path d="M0 0 C90.75 0 181.5 0 275 0 C275 159.39 275 318.78 275 483 C352.22 483 429.44 483 509 483 C509 355.29 509 227.58 509 96 C447.62 96 386.24 96 323 96 C323 129 323 162 323 196 C356.33 196 389.66 196 424 196 C424 202.93 424 209.86 424 217 C390.67 217 357.34 217 323 217 C323 285.97 323 354.94 323 426 C316.4 426 309.8 426 303 426 C303 310.17 303 194.34 303 75 C377.91 75 452.82 75 530 75 C530 216.57 530 358.14 530 504 C438.92 504 347.84 504 254 504 C254 424.14 254 344.28 254 262 C235.52 262 217.04 262 198 262 C198 255.4 198 248.8 198 242 C216.48 242 234.96 242 254 242 C254 169.07 254 96.14 254 21 C177.11 21 100.22 21 21 21 C21 93.93 21 166.86 21 242 C61.26 241.67 101.52 241.34 143 241 C142.98839844 229.96691406 142.97679687 218.93382812 142.96484375 207.56640625 C142.95973735 200.59830706 142.95488235 193.63020922 142.95117188 186.66210938 C142.94522854 175.58943216 142.93822592 164.51676253 142.92456055 153.4440918 C142.91461471 145.38143802 142.90814681 137.31879037 142.90591151 129.25613064 C142.90460423 124.98431479 142.9015173 120.71251649 142.89426994 116.44070625 C142.88751131 112.42464044 142.88538272 108.40859949 142.88689232 104.39252853 C142.88661592 102.91423215 142.88460987 101.43593499 142.88079453 99.95764351 C142.87585979 97.94801043 142.87760186 95.93836419 142.87974548 93.9287262 C142.87836279 92.23769697 142.87836279 92.23769697 142.87695217 90.51250553 C143 88 143 88 144 87 C145.47652664 86.90119203 146.95767236 86.86920755 148.4375 86.8671875 C149.33210937 86.86589844 150.22671875 86.86460937 151.1484375 86.86328125 C152.55996094 86.86908203 152.55996094 86.86908203 154 86.875 C155.41152344 86.86919922 155.41152344 86.86919922 156.8515625 86.86328125 C158.19347656 86.86521484 158.19347656 86.86521484 159.5625 86.8671875 C160.38878906 86.86831543 161.21507812 86.86944336 162.06640625 86.87060547 C164 87 164 87 165 88 C165.09836431 89.79222908 165.12555623 91.58838208 165.12584114 93.38330841 C165.12844889 94.55858707 165.13105664 95.73386573 165.13374341 96.94475889 C165.13151268 98.25241351 165.12928196 99.56006812 165.12698364 100.90734863 C165.1281345 102.29755713 165.12972179 103.68776533 165.13171089 105.07797289 C165.13590903 108.91612148 165.13381135 112.7542454 165.13072467 116.59239411 C165.12847275 120.72467868 165.13194914 124.85695885 165.13470459 128.98924255 C165.13916352 137.09147999 165.13818528 145.19370819 165.13529195 153.295946 C165.1330384 159.87772312 165.13272518 166.45949763 165.13381577 173.04127502 C165.133969 173.97614755 165.13412223 174.91102007 165.13428011 175.87422207 C165.13459982 177.77308381 165.13492403 179.67194554 165.1352527 181.57080728 C165.13810785 199.39853516 165.13481992 217.2262579 165.12945233 235.05398494 C165.12498426 250.36851206 165.12576019 265.68303161 165.13037109 280.99755859 C165.13571624 298.75919898 165.13783316 316.52083487 165.13475883 334.28247595 C165.13444026 336.17455896 165.13412589 338.06664197 165.13381577 339.95872498 C165.13366149 340.88979444 165.13350721 341.8208639 165.13334826 342.78014758 C165.13248293 349.35803588 165.13394634 355.93592134 165.13629532 362.5138092 C165.13909285 370.52428694 165.13835605 378.53475486 165.13301457 386.54523146 C165.13037692 390.63640611 165.12937356 394.72756439 165.13266373 398.81873894 C165.1356254 402.55785075 165.13403606 406.29693087 165.12868617 410.03603977 C165.12702521 412.04244024 165.1303207 414.04884287 165.13374341 416.05524111 C165.13113566 417.23051977 165.12852791 418.40579843 165.12584114 419.61669159 C165.12567879 420.63949581 165.12551644 421.66230002 165.12534916 422.71609831 C165 425 165 425 164 426 C162.5112814 426.08669432 161.018555 426.10703494 159.52734375 426.09765625 C158.62822266 426.09443359 157.72910156 426.09121094 156.80273438 426.08789062 C155.85720703 426.07951172 154.91167969 426.07113281 153.9375 426.0625 C152.5134082 426.05573242 152.5134082 426.05573242 151.06054688 426.04882812 C148.70696935 426.0370011 146.35351523 426.02052025 144 426 C142.58562612 423.17125224 142.87728469 420.81188477 142.87974548 417.64730835 C142.87846385 416.65856718 142.87846385 416.65856718 142.87715632 415.64985144 C142.87550324 413.43109116 142.88102006 411.21240572 142.88647461 408.99365234 C142.88675654 407.40717063 142.88659862 405.82068879 142.8860321 404.23420715 C142.88574438 399.91833617 142.89163715 395.6024928 142.89860606 391.28662825 C142.90484368 386.77959806 142.90544372 382.27256729 142.90663147 377.76553345 C142.90974358 369.22680421 142.91795535 360.68808773 142.92798096 352.14936411 C142.93914583 342.43003644 142.94465349 332.71070817 142.94967639 322.99137568 C142.96013806 302.99424333 142.97773518 282.99712247 143 263 C142.28731838 263.00092179 141.57463676 263.00184359 140.84035873 263.00279331 C123.50597501 263.02486957 106.17159484 263.04142184 88.83720016 263.05181217 C80.45444992 263.0569703 72.07170906 263.06400383 63.68896484 263.07543945 C56.38328808 263.08540101 49.07761811 263.09185695 41.77193475 263.09408849 C37.90299911 263.09539309 34.03408291 263.09846315 30.1651535 263.10573006 C26.52417221 263.11251346 22.88321838 263.11461221 19.24223137 263.11310768 C17.26775131 263.11351429 15.29327425 263.11889743 13.31880188 263.12442017 C11.55620277 263.12235817 11.55620277 263.12235817 9.75799561 263.12025452 C8.73664898 263.12117631 7.71530235 263.1220981 6.66300583 263.12304783 C4 263 4 263 0 262 C0 175.54 0 89.08 0 0 Z " fill="#121210" transform="translate(162,112)"/>
<path d="M0 0 C3.526875 -0.0825 7.05375 -0.165 10.6875 -0.25 C11.79053467 -0.28641602 12.89356934 -0.32283203 14.0300293 -0.36035156 C21.26419003 -0.44240003 21.26419003 -0.44240003 25.14453125 1.890625 C28.11251492 5.2647538 28.20871949 7.54085629 28.16796875 12.0234375 C27.96777963 14.37915131 27.30933963 16.03599056 26 18 C26.495 18.515625 26.99 19.03125 27.5 19.5625 C29.60248778 22.97904264 29.54531303 25.04648052 29 29 C26.97632105 32.47359452 24.88983176 34.70338941 21 36 C19.37280518 36.08143855 17.74248281 36.1075302 16.11328125 36.09765625 C15.26805908 36.09515869 14.42283691 36.09266113 13.55200195 36.09008789 C12.48296631 36.08098389 11.41393066 36.07187988 10.3125 36.0625 C5.2078125 36.0315625 5.2078125 36.0315625 0 36 C0 24.12 0 12.24 0 0 Z " fill="#5A5859" transform="translate(243,675)"/>
<path d="M0 0 C3.89543877 -0.14553599 7.79017651 -0.23415059 11.6875 -0.3125 C13.34168945 -0.3753418 13.34168945 -0.3753418 15.02929688 -0.43945312 C23.18691274 -0.56267995 23.18691274 -0.56267995 27.234375 2.23828125 C29.83235357 6.30193356 29.93190003 9.33202806 29 14 C26.94161475 17.33600367 25.2606736 18.8262176 22 21 C22.5053125 21.83144531 23.010625 22.66289063 23.53125 23.51953125 C24.50578125 25.14955078 24.50578125 25.14955078 25.5 26.8125 C26.1496875 27.89144531 26.799375 28.97039063 27.46875 30.08203125 C29 33 29 33 29 36 C26.765625 36.3984375 26.765625 36.3984375 24 36 C22.297113 33.85629473 21.04859344 31.99243574 19.75 29.625 C19.399375 29.02171875 19.04875 28.4184375 18.6875 27.796875 C17.39589238 25.56140027 16.15468111 23.30936222 15 21 C12.64400765 20.53248212 12.64400765 20.53248212 9.9375 20.375 C7.4934375 20.189375 7.4934375 20.189375 5 20 C5.33 24.95 5.66 29.9 6 35 C3.525 35.495 3.525 35.495 1 36 C0 35 0 35 -0.11352539 31.67358398 C-0.11336629 30.19774444 -0.10767314 28.72189931 -0.09765625 27.24609375 C-0.09553383 26.08292381 -0.09553383 26.08292381 -0.09336853 24.89625549 C-0.08775345 22.40996506 -0.07519846 19.9237634 -0.0625 17.4375 C-0.05748694 15.75586067 -0.0529237 14.07421994 -0.04882812 12.39257812 C-0.03777913 8.26168434 -0.02050445 4.13085724 0 0 Z " fill="#4C4A4B" transform="translate(469,675)"/>
<path d="M0 0 C3.691875 -0.103125 7.38375 -0.20625 11.1875 -0.3125 C12.92036255 -0.38078003 12.92036255 -0.38078003 14.68823242 -0.45043945 C22.26638696 -0.55314243 22.26638696 -0.55314243 26.17578125 2.39453125 C28.85875606 6.22653167 29.62345323 8.27956843 29 13 C26.86259835 16.22254402 24.49332012 19.25333994 21 21 C23.64 25.62 26.28 30.24 29 35 C28 36 28 36 25.4375 36.0625 C24.633125 36.041875 23.82875 36.02125 23 36 C21.66141476 33.71125827 20.32898986 31.41930344 19 29.125 C18.6184375 28.47402344 18.236875 27.82304688 17.84375 27.15234375 C15 22.2265625 15 22.2265625 15 20 C11.7 20 8.4 20 5 20 C5 24.95 5 29.9 5 35 C2.525 35.495 2.525 35.495 0 36 C0 24.12 0 12.24 0 0 Z " fill="#686667" transform="translate(521,675)"/>
<path d="M0 0 C2.64 0 5.28 0 8 0 C9.55515352 4.16006432 11.10316179 8.32269795 12.64477539 12.48779297 C13.16953985 13.90257218 13.69620604 15.3166476 14.22485352 16.72998047 C14.98702298 18.76865809 15.74218108 20.8098193 16.49609375 22.8515625 C16.95169678 24.07697754 17.4072998 25.30239258 17.87670898 26.56494141 C18.91096496 29.72772811 19.55713112 32.70822829 20 36 C18.35 36 16.7 36 15 36 C13.5393715 33.35261084 13 32.10551666 13 29 C7.06 29 1.12 29 -5 29 C-5.33 30.98 -5.66 32.96 -6 35 C-8.475 35.495 -8.475 35.495 -11 36 C-12.16841112 32.49476665 -11.81452229 31.85228559 -10.48828125 28.53515625 C-10.14410156 27.65754639 -9.79992187 26.77993652 -9.4453125 25.87573242 C-9.07148438 24.94736572 -8.69765625 24.01899902 -8.3125 23.0625 C-7.56712128 21.16480343 -6.8236207 19.26636806 -6.08203125 17.3671875 C-5.72189941 16.44776367 -5.36176758 15.52833984 -4.99072266 14.58105469 C-3.14772557 9.77963399 -1.54373648 4.9054258 0 0 Z " fill="#333232" transform="translate(429,675)"/>
<path d="M0 0 C3.125 -0.1875 3.125 -0.1875 6 0 C9.23568306 7.00915897 12.04097407 14.14798945 14.75 21.375 C15.16121094 22.45394531 15.57242188 23.53289063 15.99609375 24.64453125 C16.38410156 25.67707031 16.77210938 26.70960938 17.171875 27.7734375 C17.5234668 28.70591309 17.87505859 29.63838867 18.23730469 30.59912109 C19 33 19 33 19 36 C17.35 36 15.7 36 14 36 C13.01 34.02 12.02 32.04 11 30 C5.39 29.67 -0.22 29.34 -6 29 C-6.495 31.475 -6.495 31.475 -7 34 C-7.33 34.66 -7.66 35.32 -8 36 C-9.65 36 -11.3 36 -13 36 C-11.9705934 30.04042391 -9.80094023 24.49994442 -7.76196289 18.82470703 C-7.06285613 16.87599268 -6.37192996 14.92450885 -5.68164062 12.97265625 C-5.24142578 11.74160156 -4.80121094 10.51054688 -4.34765625 9.2421875 C-3.94554932 8.1166748 -3.54344238 6.99116211 -3.12915039 5.83154297 C-2 3 -2 3 0 0 Z " fill="#323232" transform="translate(581,675)"/>
<path d="M0 0 C1.134375 0.020625 2.26875 0.04125 3.4375 0.0625 C4.99524941 4.06076175 6.54312149 8.06266984 8.08227539 12.06811523 C8.60632251 13.42786176 9.1329721 14.78660846 9.66235352 16.14428711 C10.42644346 18.10528327 11.18084485 20.06978317 11.93359375 22.03515625 C12.38919678 23.21343994 12.8447998 24.39172363 13.31420898 25.60571289 C14.45147564 29.10550829 15.02778929 32.4117941 15.4375 36.0625 C13.7875 36.0625 12.1375 36.0625 10.4375 36.0625 C9.7775 33.7525 9.1175 31.4425 8.4375 29.0625 C2.8275 29.0625 -2.7825 29.0625 -8.5625 29.0625 C-9.2225 31.0425 -9.8825 33.0225 -10.5625 35.0625 C-13.0375 35.5575 -13.0375 35.5575 -15.5625 36.0625 C-16.5625 34.0625 -16.5625 34.0625 -16.00512695 32.09814453 C-15.69019287 31.30520996 -15.37525879 30.51227539 -15.05078125 29.6953125 C-14.70668213 28.81456055 -14.36258301 27.93380859 -14.00805664 27.02636719 C-13.63414795 26.08954102 -13.26023926 25.15271484 -12.875 24.1875 C-12.12822609 22.27942044 -11.38342251 20.37056854 -10.640625 18.4609375 C-10.28033203 17.53506836 -9.92003906 16.60919922 -9.54882812 15.65527344 C-7.96732115 11.49794569 -6.59014866 7.28929486 -5.25390625 3.046875 C-4.07034082 -0.35002467 -3.92136453 0.06879587 0 0 Z " fill="#302F30" transform="translate(308.5625,674.9375)"/>
<path d="M0 0 C1.65 0 3.3 0 5 0 C5 4.95 5 9.9 5 15 C10.61 15 16.22 15 22 15 C22 10.05 22 5.1 22 0 C23.65 0 25.3 0 27 0 C27 11.55 27 23.1 27 35 C24.525 35.495 24.525 35.495 22 36 C19.80103131 31.60206262 21.62030689 24.64069352 22 20 C16.39 20 10.78 20 5 20 C5 25.28 5 30.56 5 36 C3.35 36 1.7 36 0 36 C0 24.12 0 12.24 0 0 Z " fill="#343233" transform="translate(665,675)"/>
<path d="M0 0 C1.65 0 3.3 0 5 0 C5 4.95 5 9.9 5 15 C10.61 15 16.22 15 22 15 C22 10.05 22 5.1 22 0 C23.65 0 25.3 0 27 0 C27 11.55 27 23.1 27 35 C24.525 35.495 24.525 35.495 22 36 C22 30.72 22 25.44 22 20 C16.39 20 10.78 20 5 20 C5 25.28 5 30.56 5 36 C3.35 36 1.7 36 0 36 C0 24.12 0 12.24 0 0 Z " fill="#2D2C2C" transform="translate(162,675)"/>
<path d="M0 0 C7.59 0 15.18 0 23 0 C23 1.65 23 3.3 23 5 C17.39 5 11.78 5 6 5 C6 8.3 6 11.6 6 15 C6.85464844 14.91621094 7.70929688 14.83242188 8.58984375 14.74609375 C9.69457031 14.64425781 10.79929687 14.54242187 11.9375 14.4375 C13.59072266 14.28087891 13.59072266 14.28087891 15.27734375 14.12109375 C16.62505859 14.06115234 16.62505859 14.06115234 18 14 C19 15 19 15 19 20 C14.71 20 10.42 20 6 20 C6 24.95 6 29.9 6 35 C3.525 35.495 3.525 35.495 1 36 C0 35 0 35 -0.11352539 31.67358398 C-0.11336629 30.19774444 -0.10767314 28.72189931 -0.09765625 27.24609375 C-0.09553383 26.08292381 -0.09553383 26.08292381 -0.09336853 24.89625549 C-0.08775345 22.40996506 -0.07519846 19.9237634 -0.0625 17.4375 C-0.05748694 15.75586067 -0.0529237 14.07421994 -0.04882812 12.39257812 C-0.03862832 8.26165671 -0.01905605 4.13092818 0 0 Z " fill="#696768" transform="translate(376,675)"/>
<path d="M0 0 C2.9375 2.375 2.9375 2.375 5 5 C5 5.99 5 6.98 5 8 C3.35 8.33 1.7 8.66 0 9 C-0.99 7.68 -1.98 6.36 -3 5 C-4.65 5.33 -6.3 5.66 -8 6 C-8.79953138 9.28696233 -9.09658936 10.71023192 -8 14 C-6.02893873 14.84179 -6.02893873 14.84179 -3.6875 15.375 C-0.48949409 16.36291902 0.98784138 16.98932414 3.5625 19.25 C5.42063851 22.80469976 5.49569182 25.03446546 5 29 C3.34860695 32.5386994 2.28394771 33.81070153 -1 36 C-7.99656881 36.78993519 -7.99656881 36.78993519 -11.9375 33.6875 C-14 31 -14 31 -15 28 C-13.35 27.34 -11.7 26.68 -10 26 C-9.01 27.32 -8.02 28.64 -7 30 C-5.35 29.67 -3.7 29.34 -2 29 C-1.25042843 25.52852158 -1.25042843 25.52852158 -1 22 C-1.86625 21.7525 -2.7325 21.505 -3.625 21.25 C-8.53461211 19.43162514 -12.07561985 17.38657022 -15 13 C-15.43492196 9.70701945 -15.69293789 7.19665043 -13.984375 4.24609375 C-9.71793413 -1.08695734 -6.48056688 -1.56427476 0 0 Z " fill="#3A3839" transform="translate(635,675)"/>
<path d="M0 0 C6.6 0 13.2 0 20 0 C19.01 0.33 18.02 0.66 17 1 C17 1.66 17 2.32 17 3 C12.71 3 8.42 3 4 3 C4 6.63 4 10.26 4 14 C8.95 14 13.9 14 19 14 C19.33 14.66 19.66 15.32 20 16 C20.66 16 21.32 16 22 16 C22 16.99 22 17.98 22 19 C22.66 19 23.32 19 24 19 C23.67 19.99 23.34 20.98 23 22 C22.01 21.34 21.02 20.68 20 20 C17.24582682 19.69933846 14.57354853 19.49074701 11.8125 19.375 C11.06291016 19.33632813 10.31332031 19.29765625 9.54101562 19.2578125 C7.69440801 19.16371784 5.8472381 19.08077681 4 19 C4 22.63 4 26.26 4 30 C9.94 29.67 15.88 29.34 22 29 C21 33 21 33 20 34 C18.5112814 34.08669432 17.018555 34.10703494 15.52734375 34.09765625 C14.71773193 34.09515869 13.90812012 34.09266113 13.07397461 34.09008789 C12.03893799 34.08098389 11.00390137 34.07187988 9.9375 34.0625 C6.658125 34.041875 3.37875 34.02125 0 34 C0 22.78 0 11.56 0 0 Z " fill="#252324" transform="translate(244,676)"/>
<path d="M0 0 C3.691875 -0.103125 7.38375 -0.20625 11.1875 -0.3125 C12.92036255 -0.38078003 12.92036255 -0.38078003 14.68823242 -0.45043945 C22.26638696 -0.55314243 22.26638696 -0.55314243 26.17578125 2.39453125 C28.86356754 6.23340374 29.37701022 8.28737228 29 13 C27.75 15.375 27.75 15.375 26 17 C24.68 17 23.36 17 22 17 C22 17.66 22 18.32 22 19 C21.34 19 20.68 19 20 19 C19.67 18.01 19.34 17.02 19 16 C19.66 15.62875 20.32 15.2575 21 14.875 C23.3115315 13.09967933 23.3115315 13.09967933 23.4375 9.9375 C23.293125 8.968125 23.14875 7.99875 23 7 C19.27933528 4.51955685 16.13459526 4.55618827 11.8125 4.375 C11.06291016 4.33632813 10.31332031 4.29765625 9.54101562 4.2578125 C7.69440801 4.16371784 5.8472381 4.08077681 4 4 C4 7.96 4 11.92 4 16 C8.29 16 12.58 16 17 16 C17.33 16.66 17.66 17.32 18 18 C13.36297289 19.5456757 8.87528349 19.05735628 4 19 C4 22.96 4 26.92 4 31 C2.68 31 1.36 31 0 31 C0 20.77 0 10.54 0 0 Z " fill="#1A1819" transform="translate(521,675)"/>
<path d="M0 0 C1.4540625 0.0309375 1.4540625 0.0309375 2.9375 0.0625 C5.32888472 5.23270048 7.56043603 10.46567014 9.6875 15.75 C10.11546875 16.80574219 10.5434375 17.86148438 10.984375 18.94921875 C11.96816829 22.16267472 12.11771132 24.72358475 11.9375 28.0625 C9.06219919 29.0209336 7.64700069 29.12906387 4.70703125 28.94140625 C3.90458984 28.89306641 3.10214844 28.84472656 2.27539062 28.79492188 C1.44201172 28.73884766 0.60863281 28.68277344 -0.25 28.625 C-1.09498047 28.57279297 -1.93996094 28.52058594 -2.81054688 28.46679688 C-4.89486299 28.33726311 -6.97873182 28.20056823 -9.0625 28.0625 C-9.6875 25.1875 -9.6875 25.1875 -10.0625 22.0625 C-9.4025 21.4025 -8.7425 20.7425 -8.0625 20.0625 C-7.7325 21.3825 -7.4025 22.7025 -7.0625 24.0625 C-2.4425 24.0625 2.1775 24.0625 6.9375 24.0625 C6.133125 22.20625 5.32875 20.35 4.5 18.4375 C2.7018538 14.28793184 1.52402352 10.55243869 0.9375 6.0625 C0.2775 6.0625 -0.3825 6.0625 -1.0625 6.0625 C-1.31 7.3 -1.5575 8.5375 -1.8125 9.8125 C-2.7335758 13.57689673 -3.97597366 15.59327893 -7.0625 18.0625 C-8.77591852 11.49439566 -7.02418185 7.05474003 -4.0625 1.0625 C-3.0625 0.0625 -3.0625 0.0625 0 0 Z " fill="#363435" transform="translate(584.0625,674.9375)"/>
<path d="M0 0 C2.64 0 5.28 0 8 0 C8.93385816 2.80157448 9.16354595 4.65447803 9.1875 7.5625 C9.20167969 8.34753906 9.21585937 9.13257813 9.23046875 9.94140625 C9 12 9 12 7 14 C5.74335022 11.09399739 5 9.20395416 5 6 C4.34 6 3.68 6 3 6 C2.7525 7.11375 2.505 8.2275 2.25 9.375 C0.99167982 14.46299028 -0.98634901 19.16723763 -3 24 C2.28 24 7.56 24 13 24 C13 25.32 13 26.64 13 28 C10.5821288 28.10826289 8.16912444 28.18739789 5.75 28.25 C4.72712891 28.30027344 4.72712891 28.30027344 3.68359375 28.3515625 C0.37950558 28.41571955 -1.67203824 28.20832791 -4.484375 26.421875 C-6.62469395 23.00177771 -6.4595307 21.00037882 -6 17 C-5.18107741 13.94633175 -4.12364426 11.01586228 -3 8.0625 C-2.71382813 7.28326172 -2.42765625 6.50402344 -2.1328125 5.70117188 C-1.43191126 3.79705683 -0.71734696 1.8979805 0 0 Z " fill="#2D2B2C" transform="translate(429,675)"/>
<path d="M0 0 C1.65 0 3.3 0 5 0 C5 11.55 5 23.1 5 35 C2.525 35.495 2.525 35.495 0 36 C-2.19896869 31.60206262 -0.37969311 24.64069352 0 20 C-5.61 20 -11.22 20 -17 20 C-17 19.67 -17 19.34 -17 19 C-12.05 18.67 -7.1 18.34 -2 18 C-2 17.34 -2 16.68 -2 16 C-6.95 16 -11.9 16 -17 16 C-17 15.67 -17 15.34 -17 15 C-11.39 15 -5.78 15 0 15 C0 10.05 0 5.1 0 0 Z " fill="#424142" transform="translate(687,675)"/>
<path d="M0 0 C1.65 0 3.3 0 5 0 C5 4.95 5 9.9 5 15 C10.61 15 16.22 15 22 15 C22 15.33 22 15.66 22 16 C16.06 16 10.12 16 4 16 C4 16.99 4 17.98 4 19 C9.94 19 15.88 19 22 19 C22 19.33 22 19.66 22 20 C16.39 20 10.78 20 5 20 C5 25.28 5 30.56 5 36 C3.35 36 1.7 36 0 36 C0 24.12 0 12.24 0 0 Z " fill="#4A4949" transform="translate(162,675)"/>
<path d="M0 0 C2.60444348 -0.05394705 5.20776998 -0.09364469 7.8125 -0.125 C8.55048828 -0.14175781 9.28847656 -0.15851562 10.04882812 -0.17578125 C13.91246426 -0.21074628 15.70903668 -0.19397555 19 2 C19.38145736 4.98808262 19.57297084 7.04873568 17.98828125 9.6796875 C14.8304702 11.77662293 11.46470982 11.31189841 7.8125 11.1875 C6.68811523 11.16719727 6.68811523 11.16719727 5.54101562 11.14648438 C3.69370233 11.11118539 1.84675934 11.05737917 0 11 C0 7.37 0 3.74 0 0 Z " fill="#F8F6F7" transform="translate(248,695)"/>
<path d="M0 0 C2.41734542 -0.08117951 4.83194949 -0.14056926 7.25 -0.1875 C7.93191406 -0.21263672 8.61382812 -0.23777344 9.31640625 -0.26367188 C12.46474481 -0.30952147 14.66249069 -0.18107642 17.4609375 1.3203125 C19 3 19 3 19.375 6.0625 C19 9 19 9 17 11 C14.0906442 11.14517744 11.280054 11.18630796 8.375 11.125 C7.57320313 11.11597656 6.77140625 11.10695313 5.9453125 11.09765625 C3.96341477 11.07406223 1.98167019 11.03819065 0 11 C0 7.37 0 3.74 0 0 Z " fill="#F3F1F2" transform="translate(474,679)"/>
<path d="M0 0 C0.33 0.66 0.66 1.32 1 2 C1.99 1.67 2.98 1.34 4 1 C4 5.29 4 9.58 4 14 C8.62 14 13.24 14 18 14 C18 14.99 18 15.98 18 17 C13.25789168 19.90287939 9.34332952 18.70306967 4 18 C4.33 22.95 4.66 27.9 5 33 C2.525 33.495 2.525 33.495 0 34 C0 22.78 0 11.56 0 0 Z " fill="#212020" transform="translate(470,677)"/>
<path d="M0 0 C2.24940295 -0.08119503 4.49964871 -0.13927819 6.75 -0.1875 C8.00296875 -0.22230469 9.2559375 -0.25710938 10.546875 -0.29296875 C14.15570525 0.01321029 15.55121306 0.38065078 18 3 C18.375 6.0625 18.375 6.0625 18 9 C16 11 16 11 12.3046875 11.1953125 C10.82799892 11.182009 9.35137642 11.15814835 7.875 11.125 C7.12089844 11.11597656 6.36679688 11.10695313 5.58984375 11.09765625 C3.72642746 11.0740687 1.86317407 11.03819719 0 11 C0 7.37 0 3.74 0 0 Z " fill="#F5F3F4" transform="translate(248,679)"/>
<path d="M0 0 C2.79192205 -0.05380578 5.5828141 -0.09357669 8.375 -0.125 C9.1690625 -0.14175781 9.963125 -0.15851562 10.78125 -0.17578125 C12.85492015 -0.19335473 14.92883241 -0.10335168 17 0 C19 2 19 2 19.25 5 C19 8 19 8 17 10 C14.0906442 10.14517744 11.280054 10.18630796 8.375 10.125 C7.57320312 10.11597656 6.77140625 10.10695313 5.9453125 10.09765625 C3.96341477 10.07406223 1.98167019 10.03819065 0 10 C0 6.7 0 3.4 0 0 Z " fill="#F9F9F9" transform="translate(526,680)"/>
<path d="M0 0 C1.65 0 3.3 0 5 0 C5 11.88 5 23.76 5 36 C3.35 35.67 1.7 35.34 0 35 C0 23.45 0 11.9 0 0 Z " fill="#211F20" transform="translate(213,675)"/>
<path d="M0 0 C3.5 1.25 3.5 1.25 5.5 4.25 C5.96229036 9.24273591 5.58578614 12.24990685 2.5 16.25 C-1.17294875 18.6986325 -4.23268965 19.08183438 -8.5 18.25 C-11.71954645 15.71546343 -13.20432435 14.13702695 -14.5 10.25 C-12.85 9.59 -11.2 8.93 -9.5 8.25 C-8.51 9.57 -7.52 10.89 -6.5 12.25 C-4.85 11.92 -3.2 11.59 -1.5 11.25 C-0.75042843 7.77852158 -0.75042843 7.77852158 -0.5 4.25 C-1.4590625 3.816875 -1.4590625 3.816875 -2.4375 3.375 C-4.5 2.25 -4.5 2.25 -5.5 0.25 C-3.5 -0.75 -3.5 -0.75 0 0 Z " fill="#4D4B4C" transform="translate(634.5,692.75)"/>
<path d="M0 0 C6.6 0 13.2 0 20 0 C19.01 0.33 18.02 0.66 17 1 C17 1.66 17 2.32 17 3 C12.71 3 8.42 3 4 3 C4 6.63 4 10.26 4 14 C8.95 14 13.9 14 19 14 C19.33 14.66 19.66 15.32 20 16 C20.66 16 21.32 16 22 16 C22 16.99 22 17.98 22 19 C22.66 19 23.32 19 24 19 C23.67 19.99 23.34 20.98 23 22 C22.01 21.34 21.02 20.68 20 20 C17.24582682 19.69933846 14.57354853 19.49074701 11.8125 19.375 C11.06291016 19.33632813 10.31332031 19.29765625 9.54101562 19.2578125 C7.69440801 19.16371784 5.8472381 19.08077681 4 19 C4 18.67 4 18.34 4 18 C6.64 18 9.28 18 12 18 C12 17.34 12 16.68 12 16 C9.03 15.67 6.06 15.34 3 15 C2.67 15.66 2.34 16.32 2 17 C-1.40048255 11.89927617 -0.11020139 6.00597567 0 0 Z " fill="#343233" transform="translate(244,676)"/>
<path d="M0 0 C0.80566406 0.00322266 1.61132812 0.00644531 2.44140625 0.00976562 C3.70404297 0.02233398 3.70404297 0.02233398 4.9921875 0.03515625 C5.84167969 0.03966797 6.69117188 0.04417969 7.56640625 0.04882812 C9.66669659 0.06062751 11.7669508 0.07856319 13.8671875 0.09765625 C13.8671875 1.08765625 13.8671875 2.07765625 13.8671875 3.09765625 C8.2571875 3.09765625 2.6471875 3.09765625 -3.1328125 3.09765625 C-3.1328125 6.72765625 -3.1328125 10.35765625 -3.1328125 14.09765625 C0.8271875 14.09765625 4.7871875 14.09765625 8.8671875 14.09765625 C9.1971875 15.41765625 9.5271875 16.73765625 9.8671875 18.09765625 C-1.42126341 18.29493015 -1.42126341 18.29493015 -5.1328125 17.09765625 C-6.63438124 14.09451877 -6.22562454 11.30698103 -6.1953125 7.97265625 C-6.18628906 6.69132813 -6.17726563 5.41 -6.16796875 4.08984375 C-6.15636719 3.10242188 -6.14476562 2.115 -6.1328125 1.09765625 C-3.8362755 -0.05061225 -2.54968083 -0.0179555 0 0 Z " fill="#1B1A1A" transform="translate(384.1328125,675.90234375)"/>
<path d="M0 0 C0.66 0 1.32 0 2 0 C3.00399524 2.62353518 4.00334445 5.24867795 5 7.875 C5.28617187 8.62136719 5.57234375 9.36773438 5.8671875 10.13671875 C8 15.7734375 8 15.7734375 8 18 C3.38 18 -1.24 18 -6 18 C-4.2177429 11.88940424 -2.30678315 5.9317281 0 0 Z " fill="#F0EFF0" transform="translate(432,681)"/>
<path d="M0 0 C2.00422904 3.00634356 2.95100828 5.51850074 4.0625 8.9375 C4.40410156 9.97777344 4.74570312 11.01804687 5.09765625 12.08984375 C5.80519853 14.37174419 6.42056388 16.68225552 7 19 C2.71 19 -1.58 19 -6 19 C-5.19440249 14.16641496 -4.21827093 10.59975772 -2.4375 6.125 C-1.75494141 4.39636719 -1.75494141 4.39636719 -1.05859375 2.6328125 C-0.70925781 1.76398437 -0.35992187 0.89515625 0 0 Z " fill="#F2F1F1" transform="translate(308,680)"/>
<path d="M0 0 C0.66 0 1.32 0 2 0 C3.00399524 2.62353518 4.00334445 5.24867795 5 7.875 C5.28617188 8.62136719 5.57234375 9.36773438 5.8671875 10.13671875 C8 15.7734375 8 15.7734375 8 18 C3.38 18 -1.24 18 -6 18 C-4.2177429 11.88940424 -2.30678315 5.9317281 0 0 Z " fill="#F2F0F1" transform="translate(583,681)"/>
<path d="M0 0 C3.72875388 -0.14560195 7.45677434 -0.23417043 11.1875 -0.3125 C12.24259766 -0.35439453 13.29769531 -0.39628906 14.38476562 -0.43945312 C22.25258221 -0.56355118 22.25258221 -0.56355118 26.17578125 2.39453125 C28.86356754 6.23340374 29.37701022 8.28737228 29 13 C27.75 15.375 27.75 15.375 26 17 C24.68 17 23.36 17 22 17 C22 17.66 22 18.32 22 19 C21.34 19 20.68 19 20 19 C19.67 18.01 19.34 17.02 19 16 C19.66 15.62875 20.32 15.2575 21 14.875 C23.27772645 13.10782718 23.27772645 13.10782718 23.5625 10.0625 C23.27241925 6.79217251 23.27241925 6.79217251 20.5 4.625 C19.675 4.08875 18.85 3.5525 18 3 C18.99 3 19.98 3 21 3 C21 2.34 21 1.68 21 1 C14.07 1 7.14 1 0 1 C0 0.67 0 0.34 0 0 Z " fill="#363536" transform="translate(521,675)"/>
<path d="M0 0 C1.66666667 0 3.33333333 0 5 0 C5 0.99 5 1.98 5 3 C9.62 2.67 14.24 2.34 19 2 C19 2.66 19 3.32 19 4 C18.00097656 4.04898438 17.00195312 4.09796875 15.97265625 4.1484375 C14.68230469 4.22320313 13.39195312 4.29796875 12.0625 4.375 C10.77472656 4.44460938 9.48695313 4.51421875 8.16015625 4.5859375 C7.11730469 4.72257813 6.07445312 4.85921875 5 5 C4.67 5.66 4.34 6.32 4 7 C9.28 7 14.56 7 20 7 C20 7.33 20 7.66 20 8 C14.39 8 8.78 8 3 8 C2.34 9.98 1.68 11.96 1 14 C-0.65 14.33 -2.3 14.66 -4 15 C-5 13 -5 13 -4.00390625 9.9609375 C-3.52824219 8.77757812 -3.05257813 7.59421875 -2.5625 6.375 C-2.08941406 5.18648437 -1.61632812 3.99796875 -1.12890625 2.7734375 C-0.75636719 1.85820313 -0.38382812 0.94296875 0 0 Z " fill="#454344" transform="translate(297,696)"/>
<path d="M0 0 C0.33 0 0.66 0 1 0 C1 1.65 1 3.3 1 5 C2.32 5.66 3.64 6.32 5 7 C5 7.66 5 8.32 5 9 C9.95 9 14.9 9 20 9 C20 9.33 20 9.66 20 10 C14.06 10 8.12 10 2 10 C1.67 11.98 1.34 13.96 1 16 C-0.65 16.33 -2.3 16.66 -4 17 C-5.3274855 13.01754349 -3.99907829 10.55210457 -2.5625 6.8125 C-2.19801758 5.83120117 -2.19801758 5.83120117 -1.82617188 4.83007812 C-1.2256707 3.21696714 -0.61390797 1.6080565 0 0 Z " fill="#504E4F" transform="translate(422,694)"/>
<path d="M0 0 C0.66 0.33 1.32 0.66 2 1 C2 1.99 2 2.98 2 4 C7.94 4 13.88 4 20 4 C20.33 5.32 20.66 6.64 21 8 C18.12469919 8.9584336 16.70950069 9.06656387 13.76953125 8.87890625 C12.96708984 8.83056641 12.16464844 8.78222656 11.33789062 8.73242188 C10.08782227 8.64831055 10.08782227 8.64831055 8.8125 8.5625 C7.96751953 8.51029297 7.12253906 8.45808594 6.25195312 8.40429688 C4.16763701 8.27476311 2.08376818 8.13806823 0 8 C-1.125 2.25 -1.125 2.25 0 0 Z " fill="#222021" transform="translate(575,695)"/>
<path d="M0 0 C1.485 0.99 1.485 0.99 3 2 C3.99 1.67 4.98 1.34 6 1 C6.33 3.31 6.66 5.62 7 8 C9.97 8.99 12.94 9.98 16 11 C15.01 11.66 14.02 12.32 13 13 C13 12.34 13 11.68 13 11 C12.01 11.99 11.02 12.98 10 14 C6.48281029 13.12070257 4.31296266 12.28825508 1.625 9.8125 C-0.38679324 6.33055016 -0.310393 3.95751073 0 0 Z " fill="#3F3E3E" transform="translate(620,681)"/>
<path d="M0 0 C0.66 0.66 1.32 1.32 2 2 C4.66949409 2.24315656 4.66949409 2.24315656 7.625 2.125 C8.62789062 2.10695313 9.63078125 2.08890625 10.6640625 2.0703125 C11.82035156 2.03550781 11.82035156 2.03550781 13 2 C12.01 2.495 12.01 2.495 11 3 C11 3.66 11 4.32 11 5 C8.36 5.33 5.72 5.66 3 6 C2.67 9.3 2.34 12.6 2 16 C1.01 16 0.02 16 -1 16 C-1.02685095 13.52076199 -1.04676547 11.0418116 -1.0625 8.5625 C-1.07506836 7.50192383 -1.07506836 7.50192383 -1.08789062 6.41992188 C-1.09653588 4.61306441 -1.05220011 2.80612397 -1 1 C-0.67 0.67 -0.34 0.34 0 0 Z " fill="#191718" transform="translate(245,689)"/>
<path d="M0 0 C2.85984547 2.51632049 4.41468822 5.33885553 6.1875 8.6875 C6.71730469 9.68136719 7.24710938 10.67523437 7.79296875 11.69921875 C8.19128906 12.45847656 8.58960938 13.21773437 9 14 C8 15 8 15 5.4375 15.0625 C4.633125 15.041875 3.82875 15.02125 3 15 C2.15675328 13.421924 1.32576082 11.8372958 0.5 10.25 C0.0359375 9.36828125 -0.428125 8.4865625 -0.90625 7.578125 C-2 5 -2 5 -2 1 C-1.34 0.67 -0.68 0.34 0 0 Z " fill="#494949" transform="translate(541,696)"/>
<path d="M0 0 C1.65 0 3.3 0 5 0 C5 9.57 5 19.14 5 29 C4.67 29 4.34 29 4 29 C3.67 20.42 3.34 11.84 3 3 C2.34 2.67 1.68 2.34 1 2 C1 12.89 1 23.78 1 35 C0.67 35 0.34 35 0 35 C0 23.45 0 11.9 0 0 Z " fill="#727071" transform="translate(213,675)"/>
<path d="M0 0 C6.6 0 13.2 0 20 0 C19.01 0.33 18.02 0.66 17 1 C17 1.66 17 2.32 17 3 C12.71 3 8.42 3 4 3 C4 6.63 4 10.26 4 14 C3.67 14 3.34 14 3 14 C2.92652344 12.98679687 2.92652344 12.98679687 2.8515625 11.953125 C2.77679688 11.06109375 2.70203125 10.1690625 2.625 9.25 C2.55539063 8.36828125 2.48578125 7.4865625 2.4140625 6.578125 C2.07643063 3.65332423 2.07643063 3.65332423 0 0 Z " fill="#282627" transform="translate(244,676)"/>
<path d="M0 0 C2.97903734 2.97903734 4 5.80285329 4 10 C2.35 10 0.7 10 -1 10 C-1.99 8.02 -2.98 6.04 -4 4 C-9.61 3.67 -15.22 3.34 -21 3 C-21 2.67 -21 2.34 -21 2 C-14.4 2 -7.8 2 -1 2 C-0.67 1.34 -0.34 0.68 0 0 Z " fill="#5B5A5B" transform="translate(596,701)"/>
<path d="M0 0 C1.74949772 2.62424658 2.65389981 4.55727216 3.625 7.5 C3.88539063 8.2734375 4.14578125 9.046875 4.4140625 9.84375 C5 12 5 12 5 15 C3.35 15 1.7 15 0 15 C-1.99303704 9.02088887 -1.9494638 5.84839141 0 0 Z " fill="#373737" transform="translate(319,696)"/>
<path d="M0 0 C0.99 0 1.98 0 3 0 C2.67 2.64 2.34 5.28 2 8 C-3.61 7.67 -9.22 7.34 -15 7 C-14.67 6.01 -14.34 5.02 -14 4 C-9.38 4 -4.76 4 0 4 C0 2.68 0 1.36 0 0 Z " fill="#1A1819" transform="translate(316,696)"/>
<path d="M0 0 C3.5 1.25 3.5 1.25 5.5 4.25 C5.57905064 6.58199388 5.58798769 8.91832622 5.5 11.25 C3.5 9.875 3.5 9.875 1.5 8.25 C1.5 7.59 1.5 6.93 1.5 6.25 C0.84 6.25 0.18 6.25 -0.5 6.25 C-0.5 5.59 -0.5 4.93 -0.5 4.25 C-1.4590625 3.816875 -1.4590625 3.816875 -2.4375 3.375 C-4.5 2.25 -4.5 2.25 -5.5 0.25 C-3.5 -0.75 -3.5 -0.75 0 0 Z " fill="#363435" transform="translate(634.5,692.75)"/>
<path d="M0 0 C-0.33 0.99 -0.66 1.98 -1 3 C-5.95 3 -10.9 3 -16 3 C-16.33 2.01 -16.66 1.02 -17 0 C-14.72979256 -0.19493195 -12.45879711 -0.38070418 -10.1875 -0.5625 C-8.92292969 -0.66691406 -7.65835937 -0.77132812 -6.35546875 -0.87890625 C-3 -1 -3 -1 0 0 Z " fill="#1A1819" transform="translate(443,700)"/>
<path d="M0 0 C0.53625 0.37125 1.0725 0.7425 1.625 1.125 C1.625 2.115 1.625 3.105 1.625 4.125 C2.285 4.125 2.945 4.125 3.625 4.125 C3.295 5.115 2.965 6.105 2.625 7.125 C1.635 6.465 0.645 5.805 -0.375 5.125 C-3.12917318 4.82433846 -5.80145147 4.61574701 -8.5625 4.5 C-9.31208984 4.46132813 -10.06167969 4.42265625 -10.83398438 4.3828125 C-12.68059199 4.28871784 -14.5277619 4.20577681 -16.375 4.125 C-16.375 3.795 -16.375 3.465 -16.375 3.125 C-13.735 3.125 -11.095 3.125 -8.375 3.125 C-8.375 2.465 -8.375 1.805 -8.375 1.125 C-2.95961538 -1.09038462 -2.95961538 -1.09038462 0 0 Z " fill="#282627" transform="translate(264.375,690.875)"/>
<path d="M0 0 C0.99 0 1.98 0 3 0 C3.02691685 2.45840605 3.04679802 4.91651882 3.0625 7.375 C3.07087891 8.07367187 3.07925781 8.77234375 3.08789062 9.4921875 C3.11328125 14.7734375 3.11328125 14.7734375 2 17 C1.34 17 0.68 17 0 17 C0 11.39 0 5.78 0 0 Z " fill="#1A191A" transform="translate(163,675)"/>
<path d="M0 0 C2.4377963 -0.05397335 4.87439685 -0.09365616 7.3125 -0.125 C8.00279297 -0.14175781 8.69308594 -0.15851562 9.40429688 -0.17578125 C13.17135396 -0.21217794 14.78431704 -0.14378864 18 2 C18.99 2.33 19.98 2.66 21 3 C19.35 3.66 17.7 4.32 16 5 C16 5.66 16 6.32 16 7 C14 8.625 14 8.625 12 10 C11.3125 8.25 11.3125 8.25 11 6 C11.99 4.68 12.98 3.36 14 2 C7.07 1.505 7.07 1.505 0 1 C0 0.67 0 0.34 0 0 Z " fill="#514F50" transform="translate(474,690)"/>
<path d="M0 0 C0.99 0.33 1.98 0.66 3 1 C3 3.97 3 6.94 3 10 C0.69 10.66 -1.62 11.32 -4 12 C-4.33 11.01 -4.66 10.02 -5 9 C-4.0409375 8.443125 -4.0409375 8.443125 -3.0625 7.875 C-0.36141928 5.41947207 -0.31592995 3.55421195 0 0 Z " fill="#1A1919" transform="translate(494,681)"/>
<path d="M0 0 C0.66 0 1.32 0 2 0 C2.48842105 7.32631579 2.48842105 7.32631579 0.1875 10.5 C-2 12 -2 12 -5 12 C-3.86726461 7.55619192 -2.71682385 3.73563279 0 0 Z " fill="#413F40" transform="translate(269,698)"/>
<path d="M0 0 C0.82558668 2.91618521 1.18920445 5.59535494 1.25 8.625 C1.27578125 9.40101563 1.3015625 10.17703125 1.328125 10.9765625 C1.21984375 11.64429688 1.1115625 12.31203125 1 13 C0.01 13.66 -0.98 14.32 -2 15 C-2.66 15.99 -3.32 16.98 -4 18 C-4.59244521 11.33499135 -2.48322845 6.13047025 0 0 Z " fill="#3A3939" transform="translate(302,682)"/>
<path d="M0 0 C3.65316671 1.24976756 4.78065836 1.67098753 7 5 C7 5.99 7 6.98 7 8 C5.35 8.33 3.7 8.66 2 9 C1.01 7.35 0.02 5.7 -1 4 C-0.34 3.67 0.32 3.34 1 3 C0.67 2.01 0.34 1.02 0 0 Z " fill="#525051" transform="translate(633,675)"/>
<path d="M0 0 C1.38592445 2.27022699 2.03309948 3.56594541 1.828125 6.25390625 C1.63734375 7.01574219 1.4465625 7.77757812 1.25 8.5625 C0.97929687 9.70912109 0.97929687 9.70912109 0.703125 10.87890625 C0 13 0 13 -2 16 C-3.43680971 9.86090397 -2.32637691 5.79622721 0 0 Z " fill="#211F20" transform="translate(305,677)"/>
<path d="M0 0 C2.55390984 0.36484426 4.0891745 1.05944967 6.25 2.5 C8.8357956 6.19399371 8.33648968 9.62563417 8 14 C7.67 14 7.34 14 7 14 C6.67 12.02 6.34 10.04 6 8 C5.01 9.32 4.02 10.64 3 12 C2.34 9.69 1.68 7.38 1 5 C1.66 5 2.32 5 3 5 C2.65213292 3.02463255 2.65213292 3.02463255 2 1 C1.34 0.67 0.68 0.34 0 0 Z " fill="#545253" transform="translate(490,675)"/>
<path d="M0 0 C0.99 0.99 1.98 1.98 3 3 C3.66 2.67 4.32 2.34 5 2 C4.34 3.98 3.68 5.96 3 8 C2.01 8 1.02 8 0 8 C0 8.99 0 9.98 0 11 C-1.98 11.99 -1.98 11.99 -4 13 C-3.52343588 11.20763933 -3.04366502 9.41613103 -2.5625 7.625 C-2.29566406 6.62726562 -2.02882813 5.62953125 -1.75390625 4.6015625 C-1 2 -1 2 0 0 Z " fill="#484747" transform="translate(575,689)"/>
<path d="M0 0 C2.875 0.25 2.875 0.25 6 1 C7.3125 2.9375 7.3125 2.9375 8 5 C8.33 5.66 8.66 6.32 9 7 C9.04022391 9.3329866 9.04320247 11.66706666 9 14 C8.67 14 8.34 14 8 14 C8 12.02 8 10.04 8 8 C5.66924071 8.95865509 5.66924071 8.95865509 4 12 C4.33 9.69 4.66 7.38 5 5 C4.34 5 3.68 5 3 5 C3 4.01 3 3.02 3 2 C2.01 2.33 1.02 2.66 0 3 C0 2.01 0 1.02 0 0 Z " fill="#4D4B4C" transform="translate(263,690)"/>
<path d="M0 0 C1.65 0 3.3 0 5 0 C3.68 0.33 2.36 0.66 1 1 C2.83656989 3.96731398 2.83656989 3.96731398 5 6 C4.34 6 3.68 6 3 6 C2.67 7.98 2.34 9.96 2 12 C1.67 11.01 1.34 10.02 1 9 C-0.32 9.33 -1.64 9.66 -3 10 C-2.01 6.7 -1.02 3.4 0 0 Z " fill="#454445" transform="translate(429,675)"/>
<path d="M0 0 C2.72426311 2.35277269 3.8141763 4.62496331 5 8 C3.35 8.66 1.7 9.32 0 10 C-1.49821059 6.62902617 -2 4.79557881 -2 1 C-1.34 0.67 -0.68 0.34 0 0 Z " fill="#4A494A" transform="translate(541,696)"/>
<path d="M0 0 C4.26086957 6.39130435 4.26086957 6.39130435 3.625 10.3125 C3.41875 10.869375 3.2125 11.42625 3 12 C0.00675737 10.9024777 -0.84610901 10.32317108 -2.25 7.375 C-2.4975 6.59125 -2.745 5.8075 -3 5 C-2.01 4.67 -1.02 4.34 0 4 C0 2.68 0 1.36 0 0 Z " fill="#3E3E3E" transform="translate(592,689)"/>
<path d="M0 0 C1.4540625 0.0309375 1.4540625 0.0309375 2.9375 0.0625 C2.9375 1.0525 2.9375 2.0425 2.9375 3.0625 C2.2775 3.0625 1.6175 3.0625 0.9375 3.0625 C0.9375 3.7225 0.9375 4.3825 0.9375 5.0625 C0.298125 5.18625 -0.34125 5.31 -1 5.4375 C-2.0209375 5.746875 -2.0209375 5.746875 -3.0625 6.0625 C-3.3925 6.7225 -3.7225 7.3825 -4.0625 8.0625 C-4.10491723 5.72955225 -4.10342937 3.39547433 -4.0625 1.0625 C-3.0625 0.0625 -3.0625 0.0625 0 0 Z " fill="#201E1F" transform="translate(584.0625,674.9375)"/>
<path d="M0 0 C2.5654594 2.5654594 2.54046087 4.47686668 3 8 C1.33388095 8.042721 -0.33382885 8.04063832 -2 8 C-3 7 -3 7 -3.25 4.5625 C-3.1675 3.716875 -3.085 2.87125 -3 2 C-2.01 1.34 -1.02 0.68 0 0 Z " fill="#515151" transform="translate(446,703)"/>
<path d="M0 0 C0.66 0.33 1.32 0.66 2 1 C2 1.66 2 2.32 2 3 C4.97 3.99 7.94 4.98 11 6 C10.01 6.66 9.02 7.32 8 8 C8 7.34 8 6.68 8 6 C7.01 6.99 6.02 7.98 5 9 C2.97954558 8.39816251 0.97888961 7.72693904 -1 7 C-1.33 6.34 -1.66 5.68 -2 5 C-0.68 5 0.64 5 2 5 C1.34 3.35 0.68 1.7 0 0 Z " fill="#595758" transform="translate(625,686)"/>
<path d="M0 0 C0.66 0.33 1.32 0.66 2 1 C2 2.98 2 4.96 2 7 C0.35 7.33 -1.3 7.66 -3 8 C-3.33 7.01 -3.66 6.02 -4 5 C-3.34 4.01 -2.68 3.02 -2 2 C-1.34 2 -0.68 2 0 2 C0 1.34 0 0.68 0 0 Z " fill="#484848" transform="translate(421,703)"/>
<path d="M0 0 C-0.33 2.64 -0.66 5.28 -1 8 C-1.66 7.34 -2.32 6.68 -3 6 C-4.32 7.32 -5.64 8.64 -7 10 C-6.55090939 8.51800098 -6.09043436 7.03944764 -5.625 5.5625 C-5.36976563 4.73878906 -5.11453125 3.91507813 -4.8515625 3.06640625 C-3.73877887 0.36611937 -2.88484143 0 0 0 Z " fill="#353434" transform="translate(430,684)"/>
<path d="M0 0 C0.33 0 0.66 0 1 0 C1.09765625 6.15234375 1.09765625 6.15234375 1 8 C0 9 0 9 -2.5625 9.0625 C-3.366875 9.041875 -4.17125 9.02125 -5 9 C-3.50164236 5.88802644 -1.86022073 2.91164984 0 0 Z " fill="#201E1F" transform="translate(269,682)"/>
<path d="M0 0 C2 2 2 2 2.3125 4.5 C2.209375 5.325 2.10625 6.15 2 7 C1.01 7.66 0.02 8.32 -1 9 C-2.38111722 6.7252187 -3.05694702 5.49828639 -2.75 2.8125 C-2 1 -2 1 0 0 Z " fill="#363435" transform="translate(490,696)"/>
<path d="M0 0 C0.66 0.66 1.32 1.32 2 2 C1.625 4.125 1.625 4.125 1 6 C-0.32 6 -1.64 6 -3 6 C-3 6.66 -3 7.32 -3 8 C-3.66 8 -4.32 8 -5 8 C-5.33 7.01 -5.66 6.02 -6 5 C-4.02 3.35 -2.04 1.7 0 0 Z " fill="#1D1C1C" transform="translate(546,686)"/>
<path d="M0 0 C2.31 0 4.62 0 7 0 C6 2 6 2 4 3 C4.33 3.66 4.66 4.32 5 5 C4.34 5 3.68 5 3 5 C2.67 5.66 2.34 6.32 2 7 C1.34 6.34 0.68 5.68 0 5 C-0.99 5.495 -0.99 5.495 -2 6 C-1.34 4.02 -0.68 2.04 0 0 Z " fill="#3E3C3D" transform="translate(305,675)"/>
<path d="M0 0 C1.83836919 3.67673838 2.93651813 7.04992447 4 11 C2.35 11.33 0.7 11.66 -1 12 C-0.67 8.04 -0.34 4.08 0 0 Z " fill="#464445" transform="translate(438,680)"/>
<path d="M0 0 C0.33 1.32 0.66 2.64 1 4 C-2.28976808 5.09658936 -3.71303767 4.79953138 -7 4 C-6.67 3.01 -6.34 2.02 -6 1 C-4 0 -4 0 0 0 Z " fill="#181718" transform="translate(595,699)"/>
<path d="M0 0 C2.475 0.495 2.475 0.495 5 1 C5 3.31 5 5.62 5 8 C2.5 5.6875 2.5 5.6875 0 3 C0 2.01 0 1.02 0 0 Z " fill="#272526" transform="translate(635,696)"/>
<path d="M0 0 C1.20628008 2.33214148 2.1654738 4.49642139 3 7 C2.01 7 1.02 7 0 7 C0 6.34 0 5.68 0 5 C-1.32 5.33 -2.64 5.66 -4 6 C-4 4.35 -4 2.7 -4 1 C-2.68 0.67 -1.36 0.34 0 0 Z " fill="#191718" transform="translate(434,675)"/>
<path d="M0 0 C0.66 0 1.32 0 2 0 C2.33 1.98 2.66 3.96 3 6 C1.35 6 -0.3 6 -2 6 C-1.125 1.125 -1.125 1.125 0 0 Z " fill="#515151" transform="translate(570,705)"/>
<path d="M0 0 C0.66 0.99 1.32 1.98 2 3 C1.25 5.625 1.25 5.625 0 8 C-0.99 8.495 -0.99 8.495 -2 9 C-2.6875 6.75 -2.6875 6.75 -3 4 C-1.5625 1.6875 -1.5625 1.6875 0 0 Z " fill="#1F1D1E" transform="translate(579,684)"/>
<path d="M0 0 C2.0625 1.6875 2.0625 1.6875 4 4 C4 6.625 4 6.625 3 9 C0.9375 10.3125 0.9375 10.3125 -1 11 C-0.67 10.01 -0.34 9.02 0 8 C0.66 8 1.32 8 2 8 C2 6.68 2 5.36 2 4 C1.34 4 0.68 4 0 4 C0 2.68 0 1.36 0 0 Z " fill="#525051" transform="translate(635,699)"/>
<path d="M0 0 C0.66 0 1.32 0 2 0 C2 4 2 4 0.875 5.75 C-1.77009491 7.5133966 -3.89582621 7.20694492 -7 7 C-6.67 6.34 -6.34 5.68 -6 5 C-5.01 5.33 -4.02 5.66 -3 6 C-3 5.34 -3 4.68 -3 4 C-2.34 4 -1.68 4 -1 4 C-0.67 2.68 -0.34 1.36 0 0 Z " fill="#1A1819" transform="translate(635,703)"/>
<path d="M0 0 C0.33 1.32 0.66 2.64 1 4 C-1.31 4.66 -3.62 5.32 -6 6 C-6.33 5.01 -6.66 4.02 -7 3 C-5.35 2.34 -3.7 1.68 -2 1 C-1.34 1.66 -0.68 2.32 0 3 C0 2.01 0 1.02 0 0 Z " fill="#2F2E2F" transform="translate(496,687)"/>
<path d="M0 0 C0.66 0.33 1.32 0.66 2 1 C2 2.65 2 4.3 2 6 C0.68 6 -0.64 6 -2 6 C-2 4.35 -2 2.7 -2 1 C-1.34 0.67 -0.68 0.34 0 0 Z " fill="#383838" transform="translate(523,705)"/>
<path d="M0 0 C1.32 0.66 2.64 1.32 4 2 C4 2.99 4 3.98 4 5 C2.35 5 0.7 5 -1 5 C-0.67 3.35 -0.34 1.7 0 0 Z " fill="#5A5A5A" transform="translate(494,706)"/>
<path d="M0 0 C0.99 0.33 1.98 0.66 3 1 C3 2.32 3 3.64 3 5 C1.35 4.67 -0.3 4.34 -2 4 C-1.34 2.68 -0.68 1.36 0 0 Z " fill="#525252" transform="translate(294,706)"/>
<path d="M0 0 C0.66 0 1.32 0 2 0 C2 1.98 2 3.96 2 6 C0.68 6.33 -0.64 6.66 -2 7 C-1.125 1.125 -1.125 1.125 0 0 Z " fill="#191718" transform="translate(269,698)"/>
<path d="M0 0 C1.65 0 3.3 0 5 0 C5 0.99 5 1.98 5 3 C4.01 3.66 3.02 4.32 2 5 C1.67 4.34 1.34 3.68 1 3 C0.34 3 -0.32 3 -1 3 C-0.67 2.01 -0.34 1.02 0 0 Z " fill="#171516" transform="translate(483,691)"/>
<path d="M0 0 C2.1519437 3.22791555 2.20086443 4.28400809 2 8 C0.68 7.34 -0.64 6.68 -2 6 C-1.34 4.02 -0.68 2.04 0 0 Z " fill="#3B393A" transform="translate(319,696)"/>
<path d="M0 0 C1.5 1.25 1.5 1.25 3 3 C3 4.32 3 5.64 3 7 C2.34 7 1.68 7 1 7 C1 6.01 1 5.02 1 4 C0.34 4 -0.32 4 -1 4 C-1.33 3.01 -1.66 2.02 -2 1 C-1.34 0.67 -0.68 0.34 0 0 Z " fill="#383637" transform="translate(541,696)"/>
<path d="M0 0 C2.97 0.495 2.97 0.495 6 1 C6.33 2.32 6.66 3.64 7 5 C6.01 5.495 6.01 5.495 5 6 C4.34 5.67 3.68 5.34 3 5 C3 4.01 3 3.02 3 2 C2.01 2.33 1.02 2.66 0 3 C0 2.01 0 1.02 0 0 Z " fill="#3C3A3B" transform="translate(263,690)"/>
<path d="M0 0 C1.32 0 2.64 0 4 0 C3.67 1.32 3.34 2.64 3 4 C2.34 4 1.68 4 1 4 C0.67 4.66 0.34 5.32 0 6 C-0.38218767 4.34385343 -0.71395102 2.67542976 -1 1 C-0.67 0.67 -0.34 0.34 0 0 Z " fill="#222222" transform="translate(622,679)"/>
<path d="M0 0 C1.4606285 2.64738916 2 3.89448334 2 7 C0.35 7 -1.3 7 -3 7 C-2.1654738 4.49642139 -1.20628008 2.33214148 0 0 Z " fill="#6F6F6F" transform="translate(322,704)"/>
<path d="M0 0 C1.32 0.33 2.64 0.66 4 1 C4 2.32 4 3.64 4 5 C2.68 5 1.36 5 0 5 C0 3.35 0 1.7 0 0 Z " fill="#464646" transform="translate(184,706)"/>
</svg>
